<?xml version="1.0" encoding="UTF-8" standalone="no"?>
<!-- Created with Inkscape (http://www.inkscape.org/) -->

<svg
   xmlns:osb="http://www.openswatchbook.org/uri/2009/osb"
   xmlns:dc="http://purl.org/dc/elements/1.1/"
   xmlns:cc="http://creativecommons.org/ns#"
   xmlns:rdf="http://www.w3.org/1999/02/22-rdf-syntax-ns#"
   xmlns:svg="http://www.w3.org/2000/svg"
   xmlns="http://www.w3.org/2000/svg"
   xmlns:sodipodi="http://sodipodi.sourceforge.net/DTD/sodipodi-0.dtd"
   xmlns:inkscape="http://www.inkscape.org/namespaces/inkscape"
   version="1.1"
   id="svg3713"
   width="171.42857"
   height="171.42857"
   viewBox="0 0 171.42857 171.42857"
   sodipodi:docname="41 Logo Complete Corrected.svg"
   inkscape:version="0.92.3 (2405546, 2018-03-11)">
  <metadata
     id="metadata3719">
    <rdf:RDF>
      <cc:Work
         rdf:about="">
        <dc:format>image/svg+xml</dc:format>
        <dc:type
           rdf:resource="http://purl.org/dc/dcmitype/StillImage" />
        <dc:title></dc:title>
      </cc:Work>
    </rdf:RDF>
  </metadata>
  <defs
     id="defs3717">
    <linearGradient
       id="linearGradient6030"
       osb:paint="solid">
      <stop
         style="stop-color:#000000;stop-opacity:1;"
         offset="0"
         id="stop6028" />
    </linearGradient>
  </defs>
  <sodipodi:namedview
     pagecolor="#ffffff"
     bordercolor="#666666"
     borderopacity="1"
     objecttolerance="10"
     gridtolerance="10"
     guidetolerance="10"
     inkscape:pageopacity="0"
     inkscape:pageshadow="2"
     inkscape:window-width="3200"
     inkscape:window-height="1690"
     id="namedview3715"
     showgrid="false"
     inkscape:zoom="8.9249999"
     inkscape:cx="65.714287"
     inkscape:cy="85.714287"
     inkscape:window-x="-12"
     inkscape:window-y="-12"
     inkscape:window-maximized="1"
     inkscape:current-layer="layer1" />
  <g
     inkscape:groupmode="layer"
     id="layer1"
     inkscape:label="Gold">
    <rect
       style="fill:#ffd600;fill-opacity:1;stroke:none;stroke-opacity:1"
       id="rect4533"
       width="7.9551821"
       height="156.7507"
       x="81.120453"
       y="6.1624651" />
    <rect
       style="fill:#ffd600;fill-opacity:1;stroke:none;stroke-opacity:1"
       id="rect6034"
       width="26.330532"
       height="6.4985995"
       x="82.801125"
       y="18.375351" />
    <rect
       style="fill:#ffd600;fill-opacity:1;stroke:none;stroke-opacity:1"
       id="rect6036"
       width="13.221289"
       height="12.100841"
       x="82.801125"
       y="10.196078" />
    <rect
       style="fill:#ffd600;fill-opacity:1;stroke:none;stroke-opacity:1"
       id="rect6038"
       width="11.540616"
       height="7.5070028"
       x="90.532211"
       y="14.229692" />
  </g>
  <g
     inkscape:groupmode="layer"
     id="layer2"
     inkscape:label="Red">
    <path
       style="fill:#ff2929;fill-opacity:1;stroke-width:0.57142854"
       d="m 78.816993,165.70477 -4.34252,-3.55911 -0.01595,-19.33112 -0.01595,-19.33111 -1.571429,0.33589 c -22.950793,4.90573 -69.046403,14.45532 -69.176827,14.3313 -0.097257,-0.0925 10.140881,-20.79435 22.751419,-46.004168 12.610537,-25.209811 23.175877,-46.487325 23.478533,-47.28337 0.302655,-0.796044 0.688381,-1.309255 0.857168,-1.140467 0.218052,0.218052 -21.279492,62.463915 -24.783782,71.761115 -0.228539,0.60634 0.474805,0.71581 3.363694,0.52355 6.495062,-0.43226 40.148547,-3.28202 42.652656,-3.6118 l 2.428571,-0.31984 V 68.906652 c 0,-34.318762 -0.14644,-43.105735 -0.714286,-42.860487 -0.392857,0.169671 -3.671428,1.565745 -7.285714,3.102387 -3.614286,1.536641 -10.171428,4.36999 -14.571428,6.296332 C 32.275562,44.023927 3.9330976,56.112367 3.7779896,55.957264 3.6411639,55.820435 46.054048,25.586845 50.809441,22.431373 51.519898,21.959944 59.12085,16.583281 67.70045,10.483233 76.28005,4.3831839 83.556862,-0.60736942 83.871147,-0.60688611 c 0.494555,7.6e-4 80.750533,56.59523011 82.285703,58.02578411 0.31429,0.292869 -0.97143,-0.149 -2.85714,-0.981925 -1.88571,-0.832926 -5.84615,-2.547112 -8.80098,-3.809306 -2.95483,-1.262193 -5.7834,-2.516353 -6.28572,-2.787022 C 147.4794,49.445346 96.026719,27.074353 93.442576,26.027134 92.874941,25.797102 92.72829,34.490757 92.72829,68.370235 v 42.632575 h 1.357143 c 0.746428,0 2.160714,-0.16072 3.142857,-0.35715 l 1.785718,-0.35714 V 72.359944 c 0,-20.860714 0.13657,-37.928571 0.3035,-37.928571 0.24499,0 17.326702,12.691107 19.410772,14.421514 0.31429,0.260952 5.58572,4.210092 11.71429,8.775868 6.12857,4.565772 11.38673,8.542337 11.6848,8.836812 0.51881,0.512554 -1.9976,-0.306715 -21.00733,-6.839366 -4.65596,-1.600011 -8.70596,-2.909114 -9,-2.909114 -0.32414,0 -0.53462,10.369891 -0.53462,26.339337 v 26.339346 l 2.71429,-0.33482 c 5.60207,-0.69103 40.15533,-3.27828 41.40835,-3.10054 0.71826,0.10189 -8.33692,2.19728 -20.12264,4.65642 -11.78571,2.45914 -22.00714,4.60845 -22.71428,4.77623 -1.26473,0.30009 -1.28572,0.44924 -1.28572,9.13878 0,8.14989 0.0774,8.80976 1,8.52448 13.61642,-4.21047 19.85906,-6.05351 20.50409,-6.05351 0.43842,0 1.24365,-0.24915 1.78938,-0.55367 0.92924,-0.5185 10.10252,-3.44633 10.79783,-3.44633 0.56653,0 -3.7251,3.22196 -25.23415,18.94471 l -21.142852,15.45506 -0.15036,-19.4856 c -0.0827,-10.71708 -0.2629,-19.4856 -0.40045,-19.4856 -0.13754,0 -1.548452,0.27845 -3.135349,0.61878 l -2.885269,0.61878 -0.01909,21.23836 -0.01908,21.23836 -4.082029,3.14286 c -2.245114,1.72857 -4.389508,3.33017 -4.765326,3.55911 -0.409508,0.24947 -2.423274,-1.00983 -5.025811,-3.14286 z m 6.935177,-6.86645 2.404692,-2.4502 V 87.409744 c 0,-49.817137 0.174742,-68.978371 0.629051,-68.978371 0.345983,0 4.634703,1.411277 9.530495,3.136171 4.895792,1.724894 8.998062,3.039544 9.116162,2.921445 0.1181,-0.1181 -2.66818,-2.23652 -6.19173,-4.7076 -3.52355,-2.47108 -7.58747,-5.338885 -9.030933,-6.372898 -1.443463,-1.034014 -3.524474,-2.384668 -4.624474,-3.001452 -1.1,-0.6167865 -2.57672,-1.5366245 -3.2816,-2.044086 l -1.2816,-0.9226571 -0.146971,76.9241331 c -0.08084,42.308271 -0.0077,76.924131 0.162622,76.924111 0.17028,-1e-5 1.391709,-1.10261 2.714286,-2.45022 z"
       id="path3723"
       inkscape:connector-curvature="0" />
  </g>
</svg>
